<mxfile host="app.diagrams.net" agent="Mozilla/5.0 (Macintosh; Intel Mac OS X 10_15_7) AppleWebKit/537.36 (KHTML, like Gecko) Chrome/138.0.0.0 Safari/537.36" version="27.2.0" pages="2">
  <diagram name="第 1 页" id="odf7ovu7KHWvGoyUWSdP">
    <mxGraphModel dx="1426" dy="766" grid="1" gridSize="10" guides="1" tooltips="1" connect="1" arrows="1" fold="1" page="1" pageScale="1" pageWidth="827" pageHeight="1169" math="1" shadow="0">
      <root>
        <mxCell id="0" />
        <mxCell id="1" parent="0" />
        <mxCell id="jVGQsE5M9w36u-mPiWqJ-12" value="" style="rounded=1;whiteSpace=wrap;html=1;strokeColor=#999999;" vertex="1" parent="1">
          <mxGeometry x="280" y="235" width="50" height="210" as="geometry" />
        </mxCell>
        <mxCell id="jVGQsE5M9w36u-mPiWqJ-1" value="&amp;lt;s&amp;gt;" style="text;html=1;align=center;verticalAlign=middle;whiteSpace=wrap;rounded=0;fillColor=#f5f5f5;fontColor=#333333;strokeColor=light-dark(#ffffff, #ededed);fontSize=8;" vertex="1" parent="1">
          <mxGeometry x="90" y="330" width="30" height="20" as="geometry" />
        </mxCell>
        <mxCell id="jVGQsE5M9w36u-mPiWqJ-2" value="a" style="text;html=1;align=center;verticalAlign=middle;whiteSpace=wrap;rounded=0;fillColor=#f5f5f5;fontColor=#333333;strokeColor=light-dark(#ffffff, #ededed);fontSize=8;" vertex="1" parent="1">
          <mxGeometry x="120" y="330" width="30" height="20" as="geometry" />
        </mxCell>
        <mxCell id="jVGQsE5M9w36u-mPiWqJ-3" value="v" style="text;html=1;align=center;verticalAlign=middle;whiteSpace=wrap;rounded=0;fillColor=#f5f5f5;fontColor=#333333;strokeColor=light-dark(#ffffff, #ededed);fontSize=8;" vertex="1" parent="1">
          <mxGeometry x="150" y="330" width="30" height="20" as="geometry" />
        </mxCell>
        <mxCell id="jVGQsE5M9w36u-mPiWqJ-5" value="&lt;pre style=&quot;border: none; margin: 0px; padding: 0px; overflow: auto; word-break: break-all; overflow-wrap: break-word; text-wrap-mode: wrap; font-family: menlo, consolas, &amp;quot;DejaVu Sans Mono&amp;quot;, monospace; line-height: 1.3077; color: rgba(0, 0, 0, 0.87); text-align: left;&quot;&gt;-2.2189&lt;/pre&gt;" style="ellipse;whiteSpace=wrap;html=1;aspect=fixed;fontSize=5;fillColor=#FFFFFF;fontColor=#333333;strokeColor=#666666;" vertex="1" parent="1">
          <mxGeometry x="290" y="250" width="30" height="30" as="geometry" />
        </mxCell>
        <mxCell id="jVGQsE5M9w36u-mPiWqJ-8" value="$$\vdots$$" style="ellipse;whiteSpace=wrap;html=1;aspect=fixed;fontSize=5;fillColor=#FFFFFF;fontColor=#333333;strokeColor=#666666;" vertex="1" parent="1">
          <mxGeometry x="290" y="300" width="30" height="30" as="geometry" />
        </mxCell>
        <mxCell id="jVGQsE5M9w36u-mPiWqJ-9" value="" style="group" vertex="1" connectable="0" parent="1">
          <mxGeometry x="150" y="80" width="130" height="120" as="geometry" />
        </mxCell>
        <mxCell id="3m3FBoqtS4h-nVO-KzCd-1" value="&amp;lt;s&amp;gt;" style="text;html=1;align=center;verticalAlign=middle;whiteSpace=wrap;rounded=0;fillColor=#f5f5f5;fontColor=#333333;strokeColor=#666666;fontSize=8;" vertex="1" parent="jVGQsE5M9w36u-mPiWqJ-9">
          <mxGeometry y="20" width="20" height="20" as="geometry" />
        </mxCell>
        <mxCell id="3m3FBoqtS4h-nVO-KzCd-2" value="a" style="text;html=1;align=center;verticalAlign=middle;whiteSpace=wrap;rounded=0;fillColor=#f5f5f5;fontColor=#333333;strokeColor=#666666;fontSize=8;" vertex="1" parent="jVGQsE5M9w36u-mPiWqJ-9">
          <mxGeometry y="40" width="20" height="20" as="geometry" />
        </mxCell>
        <mxCell id="3m3FBoqtS4h-nVO-KzCd-3" value="b" style="text;html=1;align=center;verticalAlign=middle;whiteSpace=wrap;rounded=0;fillColor=#f5f5f5;fontColor=#333333;strokeColor=#666666;fontSize=8;" vertex="1" parent="jVGQsE5M9w36u-mPiWqJ-9">
          <mxGeometry y="60" width="20" height="20" as="geometry" />
        </mxCell>
        <mxCell id="3m3FBoqtS4h-nVO-KzCd-4" value="$$\vdots$$" style="text;html=1;align=center;verticalAlign=middle;whiteSpace=wrap;rounded=0;fillColor=#f5f5f5;fontColor=#333333;strokeColor=#666666;fontSize=8;" vertex="1" parent="jVGQsE5M9w36u-mPiWqJ-9">
          <mxGeometry y="80" width="20" height="20" as="geometry" />
        </mxCell>
        <mxCell id="3m3FBoqtS4h-nVO-KzCd-5" value="&amp;lt;e&amp;gt;" style="text;html=1;align=center;verticalAlign=middle;whiteSpace=wrap;rounded=0;fillColor=#f5f5f5;fontColor=#333333;strokeColor=#666666;fontSize=8;" vertex="1" parent="jVGQsE5M9w36u-mPiWqJ-9">
          <mxGeometry y="100" width="20" height="20" as="geometry" />
        </mxCell>
        <mxCell id="3m3FBoqtS4h-nVO-KzCd-6" value="&lt;pre style=&quot;border: none; margin: 0px; padding: 0px; overflow: auto; word-break: break-all; overflow-wrap: break-word; text-wrap-mode: wrap; font-family: menlo, consolas, &amp;quot;DejaVu Sans Mono&amp;quot;, monospace; line-height: 1.3077; color: rgba(0, 0, 0, 0.87); text-align: left;&quot;&gt;&lt;span&gt;-2.2189&lt;/span&gt;&lt;/pre&gt;" style="text;html=1;align=center;verticalAlign=middle;whiteSpace=wrap;rounded=0;fillColor=#d5e8d4;strokeColor=#82b366;fontSize=8;" vertex="1" parent="jVGQsE5M9w36u-mPiWqJ-9">
          <mxGeometry x="20" y="20" width="40" height="20" as="geometry" />
        </mxCell>
        <mxCell id="3m3FBoqtS4h-nVO-KzCd-10" value="&lt;pre style=&quot;border: none; margin: 0px; padding: 0px; overflow: auto; word-break: break-all; overflow-wrap: break-word; text-wrap-mode: wrap; font-family: menlo, consolas, &amp;quot;DejaVu Sans Mono&amp;quot;, monospace; line-height: 1.3077; color: rgba(0, 0, 0, 0.87); text-align: left;&quot;&gt;&lt;pre style=&quot;border: none; margin: 0px; padding: 0px; overflow: auto; word-break: break-all; overflow-wrap: break-word; text-wrap-mode: wrap; font-family: menlo, consolas, &amp;quot;DejaVu Sans Mono&amp;quot;, monospace; line-height: 1.3077;&quot;&gt;&lt;span&gt;-1.7103&lt;/span&gt;&lt;/pre&gt;&lt;/pre&gt;" style="text;html=1;align=center;verticalAlign=middle;whiteSpace=wrap;rounded=0;fillColor=#d5e8d4;strokeColor=#82b366;fontSize=8;" vertex="1" parent="jVGQsE5M9w36u-mPiWqJ-9">
          <mxGeometry x="90" y="20" width="40" height="20" as="geometry" />
        </mxCell>
        <mxCell id="3m3FBoqtS4h-nVO-KzCd-11" value="$$\cdots$$" style="rounded=0;whiteSpace=wrap;html=1;fontSize=8;fillColor=#d5e8d4;strokeColor=#82b366;" vertex="1" parent="jVGQsE5M9w36u-mPiWqJ-9">
          <mxGeometry x="60" y="20" width="30" height="20" as="geometry" />
        </mxCell>
        <mxCell id="3m3FBoqtS4h-nVO-KzCd-13" value="&lt;pre style=&quot;border: none; margin: 0px; padding: 0px; overflow: auto; word-break: break-all; overflow-wrap: break-word; text-wrap-mode: wrap; font-family: menlo, consolas, &amp;quot;DejaVu Sans Mono&amp;quot;, monospace; line-height: 1.3077; color: rgba(0, 0, 0, 0.87); text-align: left;&quot;&gt;&lt;pre style=&quot;border: none; margin: 0px; padding: 0px; overflow: auto; word-break: break-all; overflow-wrap: break-word; text-wrap-mode: wrap; font-family: menlo, consolas, &amp;quot;DejaVu Sans Mono&amp;quot;, monospace; line-height: 1.3077; color: rgba(0, 0, 0, 0.87);&quot;&gt;&lt;span&gt;-0.8399&lt;/span&gt;&lt;/pre&gt;&lt;/pre&gt;" style="text;html=1;align=center;verticalAlign=middle;whiteSpace=wrap;rounded=0;fillColor=#d5e8d4;strokeColor=#82b366;fontSize=8;" vertex="1" parent="jVGQsE5M9w36u-mPiWqJ-9">
          <mxGeometry x="20" y="40" width="40" height="20" as="geometry" />
        </mxCell>
        <mxCell id="3m3FBoqtS4h-nVO-KzCd-16" value="&lt;pre style=&quot;border: none; margin: 0px; padding: 0px; overflow: auto; word-break: break-all; overflow-wrap: break-word; text-wrap-mode: wrap; font-family: menlo, consolas, &amp;quot;DejaVu Sans Mono&amp;quot;, monospace; line-height: 1.3077; color: rgba(0, 0, 0, 0.87); text-align: left;&quot;&gt;&lt;pre style=&quot;border: none; margin: 0px; padding: 0px; overflow: auto; word-break: break-all; overflow-wrap: break-word; text-wrap-mode: wrap; font-family: menlo, consolas, &amp;quot;DejaVu Sans Mono&amp;quot;, monospace; line-height: 1.3077;&quot;&gt;&lt;pre style=&quot;border: none; margin: 0px; padding: 0px; overflow: auto; word-break: break-all; overflow-wrap: break-word; text-wrap-mode: wrap; font-family: menlo, consolas, &amp;quot;DejaVu Sans Mono&amp;quot;, monospace; line-height: 1.3077; color: rgba(0, 0, 0, 0.87);&quot;&gt;0.6752&lt;/pre&gt;&lt;/pre&gt;&lt;/pre&gt;" style="text;html=1;align=center;verticalAlign=middle;whiteSpace=wrap;rounded=0;fillColor=#d5e8d4;strokeColor=#82b366;fontSize=8;" vertex="1" parent="jVGQsE5M9w36u-mPiWqJ-9">
          <mxGeometry x="90" y="40" width="40" height="20" as="geometry" />
        </mxCell>
        <mxCell id="3m3FBoqtS4h-nVO-KzCd-17" value="$$\cdots$$" style="rounded=0;whiteSpace=wrap;html=1;fontSize=8;fillColor=#d5e8d4;strokeColor=#82b366;" vertex="1" parent="jVGQsE5M9w36u-mPiWqJ-9">
          <mxGeometry x="60" y="40" width="30" height="20" as="geometry" />
        </mxCell>
        <mxCell id="3m3FBoqtS4h-nVO-KzCd-18" value="&lt;pre style=&quot;border: none; margin: 0px; padding: 0px; overflow: auto; word-break: break-all; overflow-wrap: break-word; text-wrap-mode: wrap; font-family: menlo, consolas, &amp;quot;DejaVu Sans Mono&amp;quot;, monospace; line-height: 1.3077; color: rgba(0, 0, 0, 0.87); text-align: left;&quot;&gt;&lt;pre style=&quot;border: none; margin: 0px; padding: 0px; overflow: auto; word-break: break-all; overflow-wrap: break-word; text-wrap-mode: wrap; font-family: menlo, consolas, &amp;quot;DejaVu Sans Mono&amp;quot;, monospace; line-height: 1.3077; color: rgba(0, 0, 0, 0.87);&quot;&gt;-1.0451&lt;/pre&gt;&lt;/pre&gt;" style="text;html=1;align=center;verticalAlign=middle;whiteSpace=wrap;rounded=0;fillColor=#d5e8d4;strokeColor=#82b366;fontSize=8;" vertex="1" parent="jVGQsE5M9w36u-mPiWqJ-9">
          <mxGeometry x="20" y="60" width="40" height="20" as="geometry" />
        </mxCell>
        <mxCell id="3m3FBoqtS4h-nVO-KzCd-21" value="&lt;pre style=&quot;border: none; margin: 0px; padding: 0px; overflow: auto; word-break: break-all; overflow-wrap: break-word; text-wrap-mode: wrap; font-family: menlo, consolas, &amp;quot;DejaVu Sans Mono&amp;quot;, monospace; line-height: 1.3077; color: rgba(0, 0, 0, 0.87); text-align: left;&quot;&gt;&lt;pre style=&quot;border: none; margin: 0px; padding: 0px; overflow: auto; word-break: break-all; overflow-wrap: break-word; text-wrap-mode: wrap; font-family: menlo, consolas, &amp;quot;DejaVu Sans Mono&amp;quot;, monospace; line-height: 1.3077;&quot;&gt;&lt;pre style=&quot;border: none; margin: 0px; padding: 0px; overflow: auto; word-break: break-all; overflow-wrap: break-word; text-wrap-mode: wrap; font-family: menlo, consolas, &amp;quot;DejaVu Sans Mono&amp;quot;, monospace; line-height: 1.3077; color: rgba(0, 0, 0, 0.87);&quot;&gt;-0.5654&lt;/pre&gt;&lt;/pre&gt;&lt;/pre&gt;" style="text;html=1;align=center;verticalAlign=middle;whiteSpace=wrap;rounded=0;fillColor=#d5e8d4;strokeColor=#82b366;fontSize=8;" vertex="1" parent="jVGQsE5M9w36u-mPiWqJ-9">
          <mxGeometry x="90" y="60" width="40" height="20" as="geometry" />
        </mxCell>
        <mxCell id="3m3FBoqtS4h-nVO-KzCd-22" value="$$\cdots$$" style="rounded=0;whiteSpace=wrap;html=1;fontSize=8;fillColor=#d5e8d4;strokeColor=#82b366;" vertex="1" parent="jVGQsE5M9w36u-mPiWqJ-9">
          <mxGeometry x="60" y="60" width="30" height="20" as="geometry" />
        </mxCell>
        <mxCell id="3m3FBoqtS4h-nVO-KzCd-23" value="&lt;pre style=&quot;border: none; margin: 0px; padding: 0px; overflow: auto; word-break: break-all; overflow-wrap: break-word; text-wrap-mode: wrap; font-family: menlo, consolas, &amp;quot;DejaVu Sans Mono&amp;quot;, monospace; line-height: 1.3077; color: rgba(0, 0, 0, 0.87); text-align: left;&quot;&gt;&lt;pre style=&quot;border: none; margin: 0px; padding: 0px; overflow: auto; word-break: break-all; overflow-wrap: break-word; text-wrap-mode: wrap; font-family: menlo, consolas, &amp;quot;DejaVu Sans Mono&amp;quot;, monospace; line-height: 1.3077; color: rgba(0, 0, 0, 0.87);&quot;&gt;2.4914&lt;/pre&gt;&lt;/pre&gt;" style="text;html=1;align=center;verticalAlign=middle;whiteSpace=wrap;rounded=0;fillColor=#d5e8d4;strokeColor=#82b366;fontSize=8;" vertex="1" parent="jVGQsE5M9w36u-mPiWqJ-9">
          <mxGeometry x="20" y="100" width="40" height="20" as="geometry" />
        </mxCell>
        <mxCell id="3m3FBoqtS4h-nVO-KzCd-26" value="&lt;pre style=&quot;border: none; margin: 0px; padding: 0px; overflow: auto; word-break: break-all; overflow-wrap: break-word; text-wrap-mode: wrap; font-family: menlo, consolas, &amp;quot;DejaVu Sans Mono&amp;quot;, monospace; line-height: 1.3077; color: rgba(0, 0, 0, 0.87); text-align: left;&quot;&gt;&lt;pre style=&quot;border: none; margin: 0px; padding: 0px; overflow: auto; word-break: break-all; overflow-wrap: break-word; text-wrap-mode: wrap; font-family: menlo, consolas, &amp;quot;DejaVu Sans Mono&amp;quot;, monospace; line-height: 1.3077;&quot;&gt;&lt;pre style=&quot;border: none; margin: 0px; padding: 0px; overflow: auto; word-break: break-all; overflow-wrap: break-word; text-wrap-mode: wrap; font-family: menlo, consolas, &amp;quot;DejaVu Sans Mono&amp;quot;, monospace; line-height: 1.3077; color: rgba(0, 0, 0, 0.87);&quot;&gt;-1.0634&lt;/pre&gt;&lt;/pre&gt;&lt;/pre&gt;" style="text;html=1;align=center;verticalAlign=middle;whiteSpace=wrap;rounded=0;fillColor=#d5e8d4;strokeColor=#82b366;fontSize=8;" vertex="1" parent="jVGQsE5M9w36u-mPiWqJ-9">
          <mxGeometry x="90" y="100" width="40" height="20" as="geometry" />
        </mxCell>
        <mxCell id="3m3FBoqtS4h-nVO-KzCd-27" value="$$\cdots$$" style="rounded=0;whiteSpace=wrap;html=1;fontSize=8;fillColor=#d5e8d4;strokeColor=#82b366;" vertex="1" parent="jVGQsE5M9w36u-mPiWqJ-9">
          <mxGeometry x="60" y="100" width="30" height="20" as="geometry" />
        </mxCell>
        <mxCell id="3m3FBoqtS4h-nVO-KzCd-28" value="$$\vdots$$" style="rounded=0;whiteSpace=wrap;html=1;fontSize=8;fillColor=#d5e8d4;strokeColor=#82b366;" vertex="1" parent="jVGQsE5M9w36u-mPiWqJ-9">
          <mxGeometry x="20" y="80" width="40" height="20" as="geometry" />
        </mxCell>
        <mxCell id="3m3FBoqtS4h-nVO-KzCd-31" value="$$\ddots$$" style="rounded=0;whiteSpace=wrap;html=1;fontSize=8;fillColor=#d5e8d4;strokeColor=#82b366;" vertex="1" parent="jVGQsE5M9w36u-mPiWqJ-9">
          <mxGeometry x="60" y="80" width="30" height="20" as="geometry" />
        </mxCell>
        <mxCell id="3m3FBoqtS4h-nVO-KzCd-32" value="$$\vdots$$" style="rounded=0;whiteSpace=wrap;html=1;fontSize=8;fillColor=#d5e8d4;strokeColor=#82b366;" vertex="1" parent="jVGQsE5M9w36u-mPiWqJ-9">
          <mxGeometry x="90" y="80" width="40" height="20" as="geometry" />
        </mxCell>
        <mxCell id="3m3FBoqtS4h-nVO-KzCd-35" value="字符 → 嵌入(向量)的查找表 C" style="text;html=1;align=center;verticalAlign=middle;whiteSpace=wrap;rounded=0;fontFamily=Comic Sans MS;fontSize=8;" vertex="1" parent="jVGQsE5M9w36u-mPiWqJ-9">
          <mxGeometry width="130" height="20" as="geometry" />
        </mxCell>
        <mxCell id="jVGQsE5M9w36u-mPiWqJ-10" value="&lt;pre style=&quot;border: none; margin: 0px; padding: 0px; overflow: auto; word-break: break-all; overflow-wrap: break-word; text-wrap-mode: wrap; font-family: menlo, consolas, &amp;quot;DejaVu Sans Mono&amp;quot;, monospace; line-height: 1.3077; color: rgba(0, 0, 0, 0.87); text-align: left;&quot;&gt;-1.0634&lt;/pre&gt;" style="ellipse;whiteSpace=wrap;html=1;aspect=fixed;fontSize=5;fillColor=#FFFFFF;fontColor=#333333;strokeColor=#666666;" vertex="1" parent="1">
          <mxGeometry x="290" y="400" width="30" height="30" as="geometry" />
        </mxCell>
        <mxCell id="jVGQsE5M9w36u-mPiWqJ-13" value="$$\vdots$$" style="ellipse;whiteSpace=wrap;html=1;aspect=fixed;fontSize=5;fillColor=#FFFFFF;fontColor=#333333;strokeColor=#666666;" vertex="1" parent="1">
          <mxGeometry x="290" y="350" width="30" height="30" as="geometry" />
        </mxCell>
        <mxCell id="jVGQsE5M9w36u-mPiWqJ-15" value="" style="shape=curlyBracket;whiteSpace=wrap;html=1;rounded=1;labelPosition=left;verticalLabelPosition=middle;align=right;verticalAlign=middle;" vertex="1" parent="1">
          <mxGeometry x="262" y="260" width="10" height="50" as="geometry" />
        </mxCell>
        <mxCell id="jVGQsE5M9w36u-mPiWqJ-16" value="&amp;lt;s&amp;gt;&lt;div&gt;的&lt;/div&gt;&lt;div&gt;嵌&lt;/div&gt;&lt;div&gt;入&lt;/div&gt;" style="text;html=1;align=center;verticalAlign=middle;whiteSpace=wrap;rounded=0;labelPosition=center;verticalLabelPosition=middle;" vertex="1" parent="1">
          <mxGeometry x="75" y="400" width="60" height="115" as="geometry" />
        </mxCell>
        <mxCell id="jVGQsE5M9w36u-mPiWqJ-17" value="" style="shape=curlyBracket;whiteSpace=wrap;html=1;rounded=1;labelPosition=left;verticalLabelPosition=middle;align=right;verticalAlign=middle;" vertex="1" parent="1">
          <mxGeometry x="262" y="320" width="10" height="50" as="geometry" />
        </mxCell>
        <mxCell id="jVGQsE5M9w36u-mPiWqJ-19" value="" style="shape=curlyBracket;whiteSpace=wrap;html=1;rounded=1;labelPosition=left;verticalLabelPosition=middle;align=right;verticalAlign=middle;" vertex="1" parent="1">
          <mxGeometry x="262" y="380" width="10" height="50" as="geometry" />
        </mxCell>
        <mxCell id="jVGQsE5M9w36u-mPiWqJ-20" value="" style="rounded=1;whiteSpace=wrap;html=1;strokeColor=#999999;" vertex="1" parent="1">
          <mxGeometry x="380" y="200" width="50" height="280" as="geometry" />
        </mxCell>
        <mxCell id="jVGQsE5M9w36u-mPiWqJ-21" value="Affine层" style="text;html=1;align=center;verticalAlign=middle;whiteSpace=wrap;rounded=0;" vertex="1" parent="1">
          <mxGeometry x="375" y="170" width="60" height="30" as="geometry" />
        </mxCell>
        <mxCell id="jVGQsE5M9w36u-mPiWqJ-22" value="" style="rounded=1;whiteSpace=wrap;html=1;strokeColor=#999999;" vertex="1" parent="1">
          <mxGeometry x="480" y="200" width="50" height="280" as="geometry" />
        </mxCell>
        <mxCell id="jVGQsE5M9w36u-mPiWqJ-23" value="" style="rounded=1;whiteSpace=wrap;html=1;strokeColor=#999999;" vertex="1" parent="1">
          <mxGeometry x="590" y="250" width="50" height="160" as="geometry" />
        </mxCell>
        <mxCell id="jVGQsE5M9w36u-mPiWqJ-24" value="tanh()" style="text;html=1;align=center;verticalAlign=middle;whiteSpace=wrap;rounded=0;" vertex="1" parent="1">
          <mxGeometry x="475" y="170" width="60" height="30" as="geometry" />
        </mxCell>
        <mxCell id="jVGQsE5M9w36u-mPiWqJ-25" value="Affine层" style="text;html=1;align=center;verticalAlign=middle;whiteSpace=wrap;rounded=0;" vertex="1" parent="1">
          <mxGeometry x="585" y="220" width="60" height="30" as="geometry" />
        </mxCell>
        <mxCell id="jVGQsE5M9w36u-mPiWqJ-26" value="" style="rounded=1;whiteSpace=wrap;html=1;strokeColor=#999999;" vertex="1" parent="1">
          <mxGeometry x="680" y="250" width="50" height="160" as="geometry" />
        </mxCell>
        <mxCell id="jVGQsE5M9w36u-mPiWqJ-27" value="softmax" style="text;html=1;align=center;verticalAlign=middle;whiteSpace=wrap;rounded=0;" vertex="1" parent="1">
          <mxGeometry x="675" y="220" width="60" height="30" as="geometry" />
        </mxCell>
        <mxCell id="jVGQsE5M9w36u-mPiWqJ-30" style="edgeStyle=orthogonalEdgeStyle;rounded=0;orthogonalLoop=1;jettySize=auto;html=1;exitX=1;exitY=0.5;exitDx=0;exitDy=0;" edge="1" parent="1" source="jVGQsE5M9w36u-mPiWqJ-28">
          <mxGeometry relative="1" as="geometry">
            <mxPoint x="910" y="330" as="targetPoint" />
          </mxGeometry>
        </mxCell>
        <mxCell id="jVGQsE5M9w36u-mPiWqJ-28" value="" style="rounded=1;whiteSpace=wrap;html=1;strokeColor=#999999;" vertex="1" parent="1">
          <mxGeometry x="780" y="250" width="50" height="160" as="geometry" />
        </mxCell>
        <mxCell id="jVGQsE5M9w36u-mPiWqJ-29" value="交叉熵误差" style="text;html=1;align=center;verticalAlign=middle;whiteSpace=wrap;rounded=0;" vertex="1" parent="1">
          <mxGeometry x="775" y="220" width="60" height="30" as="geometry" />
        </mxCell>
        <mxCell id="jVGQsE5M9w36u-mPiWqJ-31" value="$$\mathcal{L}$$" style="text;html=1;align=center;verticalAlign=middle;whiteSpace=wrap;rounded=0;" vertex="1" parent="1">
          <mxGeometry x="900" y="290" width="60" height="30" as="geometry" />
        </mxCell>
      </root>
    </mxGraphModel>
  </diagram>
  <diagram id="XHtzA_MTdqGHw_HyIhik" name="第 2 页">
    <mxGraphModel dx="1426" dy="766" grid="1" gridSize="10" guides="1" tooltips="1" connect="1" arrows="1" fold="1" page="1" pageScale="1" pageWidth="827" pageHeight="1169" math="1" shadow="0">
      <root>
        <mxCell id="0" />
        <mxCell id="1" parent="0" />
        <mxCell id="PMhqmYJe_QRVWgNLb54Z-1" value="&lt;pre style=&quot;border: none; margin: 0px; padding: 0px; overflow: auto; word-break: break-all; overflow-wrap: break-word; text-wrap-mode: wrap; font-family: menlo, consolas, &amp;quot;DejaVu Sans Mono&amp;quot;, monospace; line-height: 1.3077; color: rgba(0, 0, 0, 0.87); text-align: left;&quot;&gt;&lt;pre style=&quot;border: none; margin: 0px; padding: 0px; overflow: auto; word-break: break-all; overflow-wrap: break-word; text-wrap-mode: wrap; font-family: menlo, consolas, &amp;quot;DejaVu Sans Mono&amp;quot;, monospace; line-height: 1.3077;&quot;&gt;&lt;span&gt;0.1420&lt;/span&gt;&lt;/pre&gt;&lt;/pre&gt;" style="text;html=1;align=center;verticalAlign=middle;whiteSpace=wrap;rounded=0;fillColor=#d5e8d4;strokeColor=#82b366;fontSize=10;" vertex="1" parent="1">
          <mxGeometry x="220" y="340" width="50" height="20" as="geometry" />
        </mxCell>
        <mxCell id="PMhqmYJe_QRVWgNLb54Z-2" value="&lt;pre style=&quot;border: none; margin: 0px; padding: 0px; overflow: auto; word-break: break-all; overflow-wrap: break-word; text-wrap-mode: wrap; font-family: menlo, consolas, &amp;quot;DejaVu Sans Mono&amp;quot;, monospace; line-height: 1.3077; color: rgba(0, 0, 0, 0.87); text-align: left;&quot;&gt;&lt;pre style=&quot;border: none; margin: 0px; padding: 0px; overflow: auto; word-break: break-all; overflow-wrap: break-word; text-wrap-mode: wrap; font-family: menlo, consolas, &amp;quot;DejaVu Sans Mono&amp;quot;, monospace; line-height: 1.3077;&quot;&gt;&lt;span&gt;-0.4652&lt;/span&gt;&lt;/pre&gt;&lt;/pre&gt;" style="text;html=1;align=center;verticalAlign=middle;whiteSpace=wrap;rounded=0;fillColor=#d5e8d4;strokeColor=#82b366;fontSize=10;" vertex="1" parent="1">
          <mxGeometry x="270" y="340" width="50" height="20" as="geometry" />
        </mxCell>
        <mxCell id="PMhqmYJe_QRVWgNLb54Z-3" value="&lt;pre style=&quot;border: none; margin: 0px; padding: 0px; overflow: auto; word-break: break-all; overflow-wrap: break-word; text-wrap-mode: wrap; font-family: menlo, consolas, &amp;quot;DejaVu Sans Mono&amp;quot;, monospace; line-height: 1.3077; color: rgba(0, 0, 0, 0.87); text-align: left;&quot;&gt;&lt;pre style=&quot;border: none; margin: 0px; padding: 0px; overflow: auto; word-break: break-all; overflow-wrap: break-word; text-wrap-mode: wrap; font-family: menlo, consolas, &amp;quot;DejaVu Sans Mono&amp;quot;, monospace; line-height: 1.3077;&quot;&gt;&lt;pre style=&quot;border: none; margin: 0px; padding: 0px; overflow: auto; word-break: break-all; overflow-wrap: break-word; text-wrap-mode: wrap; font-family: menlo, consolas, &amp;quot;DejaVu Sans Mono&amp;quot;, monospace; line-height: 1.3077; color: rgba(0, 0, 0, 0.87);&quot;&gt;0.4182&lt;/pre&gt;&lt;/pre&gt;&lt;/pre&gt;" style="text;html=1;align=center;verticalAlign=middle;whiteSpace=wrap;rounded=0;fillColor=#d5e8d4;strokeColor=#82b366;fontSize=10;" vertex="1" parent="1">
          <mxGeometry x="220" y="360" width="50" height="20" as="geometry" />
        </mxCell>
        <mxCell id="PMhqmYJe_QRVWgNLb54Z-4" value="&lt;pre style=&quot;border: none; margin: 0px; padding: 0px; overflow: auto; word-break: break-all; overflow-wrap: break-word; text-wrap-mode: wrap; font-family: menlo, consolas, &amp;quot;DejaVu Sans Mono&amp;quot;, monospace; line-height: 1.3077; color: rgba(0, 0, 0, 0.87); text-align: left;&quot;&gt;&lt;pre style=&quot;border: none; margin: 0px; padding: 0px; overflow: auto; word-break: break-all; overflow-wrap: break-word; text-wrap-mode: wrap; font-family: menlo, consolas, &amp;quot;DejaVu Sans Mono&amp;quot;, monospace; line-height: 1.3077;&quot;&gt;&lt;pre style=&quot;border: none; margin: 0px; padding: 0px; overflow: auto; word-break: break-all; overflow-wrap: break-word; text-wrap-mode: wrap; font-family: menlo, consolas, &amp;quot;DejaVu Sans Mono&amp;quot;, monospace; line-height: 1.3077; color: rgba(0, 0, 0, 0.87);&quot;&gt;-1.4387&lt;/pre&gt;&lt;/pre&gt;&lt;/pre&gt;" style="text;html=1;align=center;verticalAlign=middle;whiteSpace=wrap;rounded=0;fillColor=#d5e8d4;strokeColor=#82b366;fontSize=10;" vertex="1" parent="1">
          <mxGeometry x="270" y="360" width="50" height="20" as="geometry" />
        </mxCell>
        <mxCell id="PMhqmYJe_QRVWgNLb54Z-5" value="&lt;pre style=&quot;border: none; margin: 0px; padding: 0px; overflow: auto; word-break: break-all; overflow-wrap: break-word; text-wrap-mode: wrap; font-family: menlo, consolas, &amp;quot;DejaVu Sans Mono&amp;quot;, monospace; line-height: 1.3077; color: rgba(0, 0, 0, 0.87); text-align: left;&quot;&gt;&lt;pre style=&quot;border: none; margin: 0px; padding: 0px; overflow: auto; word-break: break-all; overflow-wrap: break-word; text-wrap-mode: wrap; font-family: menlo, consolas, &amp;quot;DejaVu Sans Mono&amp;quot;, monospace; line-height: 1.3077;&quot;&gt;&lt;pre style=&quot;border: none; margin: 0px; padding: 0px; overflow: auto; word-break: break-all; overflow-wrap: break-word; text-wrap-mode: wrap; font-family: menlo, consolas, &amp;quot;DejaVu Sans Mono&amp;quot;, monospace; line-height: 1.3077; color: rgba(0, 0, 0, 0.87);&quot;&gt;-0.1221&lt;/pre&gt;&lt;/pre&gt;&lt;/pre&gt;" style="text;html=1;align=center;verticalAlign=middle;whiteSpace=wrap;rounded=0;fillColor=#d5e8d4;strokeColor=#82b366;fontSize=10;" vertex="1" parent="1">
          <mxGeometry x="220" y="380" width="50" height="20" as="geometry" />
        </mxCell>
        <mxCell id="PMhqmYJe_QRVWgNLb54Z-6" value="&lt;pre style=&quot;border: none; margin: 0px; padding: 0px; overflow: auto; word-break: break-all; overflow-wrap: break-word; text-wrap-mode: wrap; font-family: menlo, consolas, &amp;quot;DejaVu Sans Mono&amp;quot;, monospace; line-height: 1.3077; color: rgba(0, 0, 0, 0.87); text-align: left;&quot;&gt;&lt;pre style=&quot;border: none; margin: 0px; padding: 0px; overflow: auto; word-break: break-all; overflow-wrap: break-word; text-wrap-mode: wrap; font-family: menlo, consolas, &amp;quot;DejaVu Sans Mono&amp;quot;, monospace; line-height: 1.3077;&quot;&gt;&lt;pre style=&quot;border: none; margin: 0px; padding: 0px; overflow: auto; word-break: break-all; overflow-wrap: break-word; text-wrap-mode: wrap; font-family: menlo, consolas, &amp;quot;DejaVu Sans Mono&amp;quot;, monospace; line-height: 1.3077; color: rgba(0, 0, 0, 0.87);&quot;&gt;0.7465&lt;/pre&gt;&lt;/pre&gt;&lt;/pre&gt;" style="text;html=1;align=center;verticalAlign=middle;whiteSpace=wrap;rounded=0;fillColor=#d5e8d4;strokeColor=#82b366;fontSize=10;" vertex="1" parent="1">
          <mxGeometry x="270" y="380" width="50" height="20" as="geometry" />
        </mxCell>
        <mxCell id="PMhqmYJe_QRVWgNLb54Z-7" value="&lt;pre style=&quot;border: none; margin: 0px; padding: 0px; overflow: auto; word-break: break-all; overflow-wrap: break-word; text-wrap-mode: wrap; font-family: menlo, consolas, &amp;quot;DejaVu Sans Mono&amp;quot;, monospace; line-height: 1.3077; color: rgba(0, 0, 0, 0.87); text-align: left;&quot;&gt;&lt;pre style=&quot;border: none; margin: 0px; padding: 0px; overflow: auto; word-break: break-all; overflow-wrap: break-word; text-wrap-mode: wrap; font-family: menlo, consolas, &amp;quot;DejaVu Sans Mono&amp;quot;, monospace; line-height: 1.3077;&quot;&gt;&lt;pre style=&quot;border: none; margin: 0px; padding: 0px; overflow: auto; word-break: break-all; overflow-wrap: break-word; text-wrap-mode: wrap; font-family: menlo, consolas, &amp;quot;DejaVu Sans Mono&amp;quot;, monospace; line-height: 1.3077; color: rgba(0, 0, 0, 0.87);&quot;&gt;0.0461&lt;/pre&gt;&lt;/pre&gt;&lt;/pre&gt;" style="text;html=1;align=center;verticalAlign=middle;whiteSpace=wrap;rounded=0;fillColor=#d5e8d4;strokeColor=#82b366;fontSize=10;" vertex="1" parent="1">
          <mxGeometry x="220" y="420" width="50" height="20" as="geometry" />
        </mxCell>
        <mxCell id="PMhqmYJe_QRVWgNLb54Z-8" value="&lt;pre style=&quot;border: none; margin: 0px; padding: 0px; overflow: auto; word-break: break-all; overflow-wrap: break-word; text-wrap-mode: wrap; font-family: menlo, consolas, &amp;quot;DejaVu Sans Mono&amp;quot;, monospace; line-height: 1.3077; color: rgba(0, 0, 0, 0.87); text-align: left;&quot;&gt;&lt;pre style=&quot;border: none; margin: 0px; padding: 0px; overflow: auto; word-break: break-all; overflow-wrap: break-word; text-wrap-mode: wrap; font-family: menlo, consolas, &amp;quot;DejaVu Sans Mono&amp;quot;, monospace; line-height: 1.3077;&quot;&gt;&lt;pre style=&quot;border: none; margin: 0px; padding: 0px; overflow: auto; word-break: break-all; overflow-wrap: break-word; text-wrap-mode: wrap; font-family: menlo, consolas, &amp;quot;DejaVu Sans Mono&amp;quot;, monospace; line-height: 1.3077; color: rgba(0, 0, 0, 0.87);&quot;&gt;-0.0812&lt;/pre&gt;&lt;/pre&gt;&lt;/pre&gt;" style="text;html=1;align=center;verticalAlign=middle;whiteSpace=wrap;rounded=0;fillColor=#d5e8d4;strokeColor=#82b366;fontSize=10;" vertex="1" parent="1">
          <mxGeometry x="270" y="420" width="50" height="20" as="geometry" />
        </mxCell>
        <mxCell id="PMhqmYJe_QRVWgNLb54Z-9" value="$$\vdots$$" style="rounded=0;whiteSpace=wrap;html=1;fontSize=10;fillColor=#d5e8d4;strokeColor=#82b366;" vertex="1" parent="1">
          <mxGeometry x="220" y="400" width="50" height="20" as="geometry" />
        </mxCell>
        <mxCell id="PMhqmYJe_QRVWgNLb54Z-10" value="$$\vdots$$" style="rounded=0;whiteSpace=wrap;html=1;fontSize=10;fillColor=#d5e8d4;strokeColor=#82b366;" vertex="1" parent="1">
          <mxGeometry x="270" y="400" width="50" height="20" as="geometry" />
        </mxCell>
      </root>
    </mxGraphModel>
  </diagram>
</mxfile>
